{
  "source": "C:\\Users\\Peter\\Desktop\\stuff\\MIUN\\quantitative_research\\video_compression\\videos\\UVG\\Jockey_1920x1080_120fps_420_8bit_YUV.y4m",
  "output": "C:\\Users\\Peter\\Desktop\\stuff\\MIUN\\quantitative_research\\video_compression\\compressed_videos\\UVG\\h264\\4\\Jockey_1920x1080_120fps_420_8bit_YUV_h264.mp4",
  "codec": "h264",
  "ok": "[yuv4mpegpipe @ 000001dee53c6600] Stream #0: not enough frames to estimate rate; consider increasing probesize\nInput #0, yuv4mpegpipe, from 'C:\\Users\\Peter\\Desktop\\stuff\\MIUN\\quantitative_research\\video_compression\\videos\\UVG\\Jockey_1920x1080_120fps_420_8bit_YUV.y4m':\n  Duration: 00:00:05.00, start: 0.000000, bitrate: 2985989 kb/s\n  Stream #0:0: Video: rawvideo (I420 / 0x30323449), yuv420p(progressive), 1920x1080, 120 fps, 120 tbr, 120 tbn\n[out#0/mp4 @ 000001dee53ca180] Codec AVOption b:a (set bitrate (in bits/s)) has not been used for any stream. The most likely reason is either wrong type (e.g. a video option with no video streams) or that it is a private option of some decoder which was not actually used for any stream.\nStream mapping:\n  Stream #0:0 -> #0:0 (rawvideo (native) -> h264 (libx264))\nPress [q] to stop, [?] for help\n[libx264 @ 000001dee53cc940] using cpu capabilities: MMX2 SSE2Fast SSSE3 SSE4.2 AVX FMA3 BMI2 AVX2\n[libx264 @ 000001dee53cc940] profile High, level 5.1, 4:2:0, 8-bit\n[libx264 @ 000001dee53cc940] 264 - core 165 r3222 b35605a - H.264/MPEG-4 AVC codec - Copyleft 2003-2025 - http://www.videolan.org/x264.html - options: cabac=1 ref=5 deblock=1:0:0 analyse=0x3:0x113 me=hex subme=8 psy=1 psy_rd=1.00:0.00 mixed_ref=1 me_range=16 chroma_me=1 trellis=2 8x8dct=1 cqm=0 deadzone=21,11 fast_pskip=1 chroma_qp_offset=-2 threads=18 lookahead_threads=3 sliced_threads=0 nr=0 decimate=1 interlaced=0 bluray_compat=0 constrained_intra=0 bframes=3 b_pyramid=2 b_adapt=1 b_bias=0 direct=3 weightb=1 open_gop=0 weightp=2 keyint=250 keyint_min=25 scenecut=40 intra_refresh=0 rc_lookahead=50 rc=cbr mbtree=1 bitrate=4000 ratetol=1.0 qcomp=0.60 qpmin=0 qpmax=69 qpstep=4 vbv_maxrate=4000 vbv_bufsize=4000 nal_hrd=none filler=0 ip_ratio=1.40 aq=1:1.00\nOutput #0, mp4, to 'C:\\Users\\Peter\\Desktop\\stuff\\MIUN\\quantitative_research\\video_compression\\compressed_videos\\UVG\\h264\\4\\Jockey_1920x1080_120fps_420_8bit_YUV_h264.mp4':\n  Metadata:\n    encoder         : Lavf62.3.100\n  Stream #0:0: Video: h264 (avc1 / 0x31637661), yuv420p(tv, progressive), 1920x1080, q=2-31, 4000 kb/s, 120 fps, 15360 tbn\n    Metadata:\n      encoder         : Lavc62.11.100 libx264\n    Side data:\n      cpb: bitrate max/min/avg: 4000000/0/4000000 buffer size: 4000000 vbv_delay: N/A\nframe=    0 fps=0.0 q=0.0 size=       0KiB time=N/A bitrate=N/A speed=N/A elapsed=0:00:00.51    \nframe=    0 fps=0.0 q=0.0 size=       0KiB time=N/A bitrate=N/A speed=N/A elapsed=0:00:01.07    \nframe=   22 fps= 13 q=39.0 size=       0KiB time=00:00:00.16 bitrate=   2.3kbits/s speed=0.101x elapsed=0:00:01.64    \nframe=   53 fps= 24 q=39.0 size=       0KiB time=00:00:00.39 bitrate=   1.0kbits/s speed=0.177x elapsed=0:00:02.20    \nframe=   81 fps= 29 q=39.0 size=       0KiB time=00:00:00.63 bitrate=   0.6kbits/s speed=0.226x elapsed=0:00:02.80    \nframe=  110 fps= 33 q=39.0 size=     256KiB time=00:00:00.89 bitrate=2352.4kbits/s speed=0.267x elapsed=0:00:03.34    \nframe=  138 fps= 35 q=39.0 size=     256KiB time=00:00:01.13 bitrate=1850.8kbits/s speed=0.291x elapsed=0:00:03.89    \nframe=  163 fps= 37 q=39.0 size=     512KiB time=00:00:01.32 bitrate=3165.8kbits/s speed= 0.3x elapsed=0:00:04.41    \nframe=  190 fps= 38 q=39.0 size=     512KiB time=00:00:01.54 bitrate=2720.9kbits/s speed=0.31x elapsed=0:00:04.96    \nframe=  212 fps= 38 q=39.0 size=     768KiB time=00:00:01.75 bitrate=3595.3kbits/s speed=0.315x elapsed=0:00:05.54    \nframe=  224 fps= 37 q=39.0 size=     768KiB time=00:00:01.85 bitrate=3401.0kbits/s speed=0.304x elapsed=0:00:06.09    \nframe=  226 fps= 34 q=39.0 size=     768KiB time=00:00:01.86 bitrate=3370.6kbits/s speed=0.282x elapsed=0:00:06.61    \nframe=  256 fps= 36 q=40.0 size=    1024KiB time=00:00:02.11 bitrate=3963.3kbits/s speed=0.296x elapsed=0:00:07.15    \nframe=  284 fps= 37 q=42.0 size=    1024KiB time=00:00:02.35 bitrate=3569.8kbits/s speed=0.305x elapsed=0:00:07.69    \nframe=  314 fps= 38 q=47.0 size=    1280KiB time=00:00:02.60 bitrate=4033.1kbits/s speed=0.316x elapsed=0:00:08.21    \nframe=  347 fps= 40 q=49.0 size=    1280KiB time=00:00:02.85 bitrate=3668.6kbits/s speed=0.327x elapsed=0:00:08.73    \nframe=  382 fps= 41 q=44.0 size=    1536KiB time=00:00:03.15 bitrate=3984.2kbits/s speed=0.341x elapsed=0:00:09.27    \nframe=  399 fps= 41 q=43.0 size=    1536KiB time=00:00:03.30 bitrate=3803.5kbits/s speed=0.337x elapsed=0:00:09.80    \nframe=  421 fps= 41 q=43.0 size=    1792KiB time=00:00:03.49 bitrate=4204.4kbits/s speed=0.338x elapsed=0:00:10.33    \nframe=  429 fps= 39 q=43.0 size=    1792KiB time=00:00:03.55 bitrate=4135.3kbits/s speed=0.327x elapsed=0:00:10.87    \nframe=  440 fps= 39 q=43.0 size=    1792KiB time=00:00:03.65 bitrate=4022.0kbits/s speed=0.32x elapsed=0:00:11.39    \nframe=  455 fps= 38 q=43.0 size=    1792KiB time=00:00:03.77 bitrate=3888.9kbits/s speed=0.317x elapsed=0:00:11.90    \nframe=  469 fps= 38 q=43.0 size=    1792KiB time=00:00:03.89 bitrate=3772.3kbits/s speed=0.313x elapsed=0:00:12.42    \nframe=  484 fps= 37 q=43.0 size=    1792KiB time=00:00:04.00 bitrate=3662.5kbits/s speed=0.31x elapsed=0:00:12.94    \nframe=  498 fps= 37 q=43.0 size=    1792KiB time=00:00:04.13 bitrate=3551.7kbits/s speed=0.306x elapsed=0:00:13.49    \nframe=  521 fps= 37 q=43.0 size=    2048KiB time=00:00:04.32 bitrate=3879.2kbits/s speed=0.308x elapsed=0:00:14.02    \nframe=  563 fps= 39 q=41.0 size=    2048KiB time=00:00:04.67 bitrate=3588.8kbits/s speed=0.322x elapsed=0:00:14.52    \n[mp4 @ 000001dee53ca280] Starting second pass: moving the moov atom to the beginning of the file\n[out#0/mp4 @ 000001dee53ca180] video:2405KiB audio:0KiB subtitle:0KiB other streams:0KiB global headers:0KiB muxing overhead: 0.292973%\nframe=  600 fps= 40 q=-1.0 Lsize=    2412KiB time=00:00:04.98 bitrate=3965.1kbits/s speed=0.334x elapsed=0:00:14.92    \n[libx264 @ 000001dee53cc940] frame I:7     Avg QP:38.11  size: 12501\n[libx264 @ 000001dee53cc940] frame P:230   Avg QP:38.91  size:  5514\n[libx264 @ 000001dee53cc940] frame B:363   Avg QP:41.31  size:  3047\n[libx264 @ 000001dee53cc940] consecutive B-frames: 16.2%  5.7% 11.5% 66.7%\n[libx264 @ 000001dee53cc940] mb I  I16..4: 60.7% 38.7%  0.7%\n[libx264 @ 000001dee53cc940] mb P  I16..4:  8.3%  3.7%  0.0%  P16..4: 20.3%  1.0%  0.9%  0.0%  0.0%    skip:65.8%\n[libx264 @ 000001dee53cc940] mb B  I16..4:  0.7%  0.4%  0.0%  B16..8: 30.2%  0.6%  0.0%  direct: 0.4%  skip:67.6%  L0:41.5% L1:58.2% BI: 0.3%\n[libx264 @ 000001dee53cc940] 8x8 transform intra:32.7% inter:94.0%\n[libx264 @ 000001dee53cc940] direct mvs  spatial:97.5% temporal:2.5%\n[libx264 @ 000001dee53cc940] coded y,uvDC,uvAC intra: 5.0% 23.6% 1.8% inter: 0.8% 3.0% 0.0%\n[libx264 @ 000001dee53cc940] i16 v,h,dc,p: 23% 43%  5% 30%\n[libx264 @ 000001dee53cc940] i8 v,h,dc,ddl,ddr,vr,hd,vl,hu: 10% 16% 44%  4%  6%  6%  6%  4%  4%\n[libx264 @ 000001dee53cc940] i4 v,h,dc,ddl,ddr,vr,hd,vl,hu: 17% 11% 16%  7% 13% 10%  9%  7% 11%\n[libx264 @ 000001dee53cc940] i8c dc,h,v,p: 62% 29%  6%  3%\n[libx264 @ 000001dee53cc940] Weighted P-Frames: Y:0.0% UV:0.0%\n[libx264 @ 000001dee53cc940] ref P L0: 49.1% 10.6% 20.5%  8.5%  8.5%  2.7%\n[libx264 @ 000001dee53cc940] ref B L0: 80.5% 12.3%  5.6%  1.6%\n[libx264 @ 000001dee53cc940] ref B L1: 95.4%  4.6%\n[libx264 @ 000001dee53cc940] kb/s:3939.07\n",
  "seconds": 15.063935041427612,
  "probe_out": {}
}